 <svg width="24" height="24" viewBox="0 0 24 24" fill="none" xmlns="http://www.w3.org/2000/svg">
            <path
              d="M23.9132 17.4576C23.7478 17.0041 23.4291 16.7589 23.0675 16.5628C23.0001 16.5261 22.9388 16.4893 22.8836 16.4648C22.7733 16.4096 22.663 16.3545 22.5527 16.2993C21.425 15.6987 20.5425 14.951 19.9358 14.0562C19.7642 13.805 19.611 13.5353 19.4884 13.2595C19.4332 13.1124 19.4394 13.0266 19.4761 12.947C19.5129 12.8857 19.5619 12.8367 19.6232 12.7938C19.8193 12.6651 20.0155 12.5364 20.1503 12.4506C20.3893 12.2912 20.5854 12.1686 20.708 12.0828C21.1676 11.758 21.4924 11.4148 21.6947 11.0287C21.9827 10.4894 22.0195 9.85816 21.7989 9.2882C21.4924 8.47922 20.7325 7.98281 19.8071 7.98281C19.611 7.98281 19.421 8.00119 19.2249 8.0441C19.1758 8.05635 19.1207 8.06861 19.0716 8.08087C19.0778 7.52929 19.0655 6.94708 19.0165 6.37099C18.8449 4.35468 18.134 3.30057 17.3985 2.46095C16.9266 1.93389 16.3751 1.48651 15.7561 1.13718C14.6407 0.499803 13.3721 0.174988 11.9931 0.174988C10.6142 0.174988 9.35171 0.499803 8.2363 1.13718C7.61732 1.48651 7.06574 1.93389 6.59384 2.46095C5.85841 3.30057 5.15362 4.36081 4.9759 6.37099C4.92687 6.94708 4.91461 7.52929 4.92074 8.08087C4.87171 8.06861 4.82268 8.05635 4.76752 8.0441C4.57754 8.00119 4.38142 7.98281 4.19144 7.98281C3.26602 7.98281 2.50607 8.48535 2.19965 9.2882C1.97902 9.85816 2.01579 10.4894 2.30383 11.0287C2.50607 11.4148 2.83089 11.758 3.29053 12.0828C3.41311 12.1686 3.60309 12.2912 3.84824 12.4506C3.97694 12.5364 4.16692 12.6589 4.35691 12.7815C4.42432 12.8244 4.47948 12.8796 4.52238 12.947C4.55915 13.0266 4.56528 13.1124 4.50399 13.2718C4.38142 13.5414 4.23434 13.805 4.06274 14.0501C3.46826 14.9204 2.61026 15.6619 1.51937 16.2564C0.943285 16.5628 0.342683 16.7651 0.085282 17.4576C-0.104704 17.9785 0.0178675 18.5669 0.502026 19.0694C0.679755 19.2533 0.888127 19.4126 1.11489 19.5352C1.58679 19.7926 2.08933 19.9948 2.61639 20.1358C2.7267 20.1664 2.82476 20.2093 2.91669 20.2706C3.09442 20.4238 3.0699 20.6567 3.30279 20.9999C3.41923 21.1777 3.57245 21.3309 3.74405 21.4534C4.24047 21.7966 4.79817 21.815 5.38651 21.8395C5.9197 21.8579 6.5203 21.8824 7.21283 22.1092C7.50087 22.2011 7.79505 22.385 8.13825 22.5995C8.96561 23.1082 10.0933 23.8007 11.987 23.8007C13.8807 23.8007 15.0145 23.102 15.848 22.5934C16.1912 22.385 16.4854 22.2011 16.7612 22.1092C17.4476 21.8824 18.0543 21.8579 18.5875 21.8395C19.1758 21.815 19.7335 21.7966 20.23 21.4534C20.4383 21.3064 20.6099 21.1225 20.7325 20.9019C20.9041 20.6138 20.898 20.4116 21.0573 20.2706C21.1431 20.2093 21.2412 20.1664 21.3392 20.1419C21.8663 20.001 22.3811 19.7987 22.8591 19.5352C23.0981 19.4065 23.3188 19.2349 23.5026 19.0327L23.5087 19.0265C23.9868 18.5362 24.1032 17.9602 23.9132 17.4576ZM22.234 18.3585C21.2105 18.9223 20.5241 18.8611 19.9971 19.2043C19.5436 19.4923 19.8132 20.1174 19.4884 20.3442C19.0839 20.62 17.895 20.3258 16.3628 20.8345C15.0942 21.2512 14.2914 22.4585 12.0115 22.4585C9.73168 22.4585 8.94722 21.2573 7.66022 20.8345C6.12807 20.3258 4.93912 20.6261 4.53464 20.3442C4.20982 20.1174 4.47335 19.4923 4.02596 19.2043C3.49278 18.8611 2.8125 18.9223 1.78903 18.3585C1.13327 17.9969 1.50711 17.7763 1.72162 17.6721C5.43554 15.8764 6.03001 13.1002 6.05453 12.8918C6.08517 12.6405 6.12194 12.4444 5.84616 12.1931C5.58263 11.948 4.40594 11.2187 4.07499 10.9919C3.53568 10.612 3.29666 10.2381 3.47439 9.77236C3.59696 9.45367 3.89726 9.3311 4.20982 9.3311C4.30788 9.3311 4.40594 9.34336 4.50399 9.36174C5.09847 9.49044 5.67456 9.78461 6.0055 9.87041C6.0484 9.88267 6.08517 9.8888 6.12807 9.8888C6.3058 9.8888 6.36709 9.79687 6.35483 9.59463C6.31806 8.945 6.22613 7.68251 6.33031 6.49969C6.47127 4.87561 6.9922 4.06664 7.61732 3.35573C7.91762 3.01252 9.32107 1.52941 12.0115 1.52941C14.702 1.52941 16.1054 3.0064 16.4057 3.3496C17.0308 4.06051 17.5518 4.86949 17.6927 6.49356C17.7969 7.67638 17.705 8.93887 17.6621 9.5885C17.6498 9.803 17.7111 9.88267 17.8888 9.88267C17.9317 9.88267 17.9685 9.87654 18.0114 9.86429C18.3423 9.78461 18.9184 9.48431 19.5129 9.35561C19.611 9.3311 19.709 9.32497 19.8071 9.32497C20.1196 9.32497 20.4199 9.44754 20.5425 9.76623C20.7202 10.232 20.4812 10.6058 19.9419 10.9858C19.6171 11.2126 18.4404 11.9419 18.1707 12.187C17.895 12.4383 17.9317 12.6344 17.9624 12.8857C17.9869 13.0941 18.5814 15.8703 22.2953 17.666C22.5159 17.7702 22.8836 17.9969 22.234 18.3585Z"
              fill="#B4B5B5" />
          </svg>