<svg width="22" height="20" viewBox="0 0 22 20" fill="none" xmlns="http://www.w3.org/2000/svg">
<path d="M10.5259 0.415682C10.6782 -0.039273 11.3218 -0.0392724 11.4741 0.415682L13.6376 6.87581C13.7054 7.07807 13.894 7.21509 14.1073 7.21701L20.9198 7.27835C21.3995 7.28267 21.5984 7.89468 21.2128 8.18018L15.7374 12.2341C15.566 12.361 15.4939 12.5827 15.558 12.7862L17.6049 19.2842C17.749 19.7418 17.2284 20.1201 16.8377 19.8416L11.2902 15.8869C11.1166 15.7631 10.8834 15.7631 10.7098 15.8869L5.16226 19.8416C4.77158 20.1201 4.25098 19.7418 4.39512 19.2842L6.44197 12.7862C6.50605 12.5827 6.43402 12.361 6.26259 12.2341L0.787205 8.18018C0.401601 7.89468 0.600455 7.28267 1.08023 7.27835L7.89274 7.21701C8.10603 7.21509 8.29462 7.07807 8.36236 6.87581L10.5259 0.415682Z" fill="#FFC107"/>
</svg>
