<svg width="22" height="20" viewBox="0 0 22 20" fill="none" xmlns="http://www.w3.org/2000/svg">
<path d="M10.7629 0.495074C10.8391 0.267598 11.1609 0.267595 11.2371 0.495075L13.4006 6.95521C13.5022 7.25859 13.7851 7.46412 14.105 7.467L20.9175 7.52834C21.1574 7.5305 21.2568 7.83651 21.064 7.97926L15.5886 12.0332C15.3315 12.2236 15.2235 12.5561 15.3196 12.8613L17.3664 19.3593C17.4385 19.5881 17.1782 19.7773 16.9829 19.638L11.4354 15.6833C11.1748 15.4976 10.8252 15.4976 10.5646 15.6833L5.01714 19.638C4.8218 19.7773 4.5615 19.5881 4.63357 19.3593L6.68042 12.8613C6.77654 12.5561 6.66849 12.2236 6.41135 12.0332L0.935967 7.97925C0.743165 7.83651 0.842591 7.5305 1.08248 7.52834L7.89499 7.467C8.21493 7.46412 8.49781 7.25859 8.59942 6.95521L10.7629 0.495074Z" stroke="#FFC107" stroke-width="0.5"/>
</svg>
